#!OML:ASF F:\VICON\USERDATA\INSTALL\rory3\rory3.ASF
:FULLY-SPECIFIED
:DEGREES
475
root 0.957002 18.0221 -1.17743 3.99764 -29.2706 1.16338
lowerback 2.8916 -0.69078 -4.69353
upperback 1.96255 -1.03632 2.14524
thorax 0.52448 -0.582694 4.87717
lowerneck -11.9903 1.73628 -12.6272
upperneck 24.6322 4.41407 2.87111
head 9.44474 1.15049 3.6065
rclavicle 6.95746e-016 1.39149e-014
rhumerus -34.6499 5.5736 -79.1967
rradius 66.3445
rwrist 9.64088
rhand -26.8328 11.1848
rfingers 7.12502
rthumb -0.258632 -18.7948
lclavicle 6.95746e-016 1.39149e-014
lhumerus -9.57554 -29.6541 83.5216
lradius 114.195
lwrist 13.7888
lhand -27.4691 42.719
lfingers 7.12502
lthumb -0.873134 72.6969
rfemur -13.6483 2.85367 10.8954
rtibia 22.615
rfoot -13.9432 -11.8822
rtoes 5.0517
lfemur -7.22868 1.14738 -22.9599
ltibia 16.4086
lfoot -9.17842 5.08626
ltoes -11.3889
476
root 0.956922 18.0217 -1.17577 3.98042 -29.3097 1.13401
lowerback 3.01173 -0.704282 -4.8089
upperback 1.82979 -1.06304 2.28062
thorax 0.32881 -0.589288 5.08802
lowerneck -12.1162 1.85921 -12.5304
upperneck 25.1739 4.65929 2.61956
head 9.65336 1.21378 3.54701
rclavicle 6.54995e-014 -2.78299e-015
rhumerus -34.7272 6.10475 -79.2354
rradius 67.3987
rwrist 9.49218
rhand -26.5974 11.1809
rfingers 7.12502
rthumb -0.0312529 -18.7989
lclavicle 6.54995e-014 -2.78299e-015
lhumerus -10.3986 -29.473 84.0759
lradius 113.701
lwrist 13.6263
lhand -27.524 42.6292
lfingers 7.12502
lthumb -0.926213 72.607
rfemur -13.6231 2.85065 10.9242
rtibia 22.6176
rfoot -13.9507 -11.8247
rtoes 5.5573
lfemur -7.18282 1.20579 -22.9394
ltibia 16.402
lfoot -9.21722 5.09135
ltoes -11.8058
477
root 0.956722 18.021 -1.17341 3.94388 -29.3291 1.11447
lowerback 3.00149 -0.837346 -5.18403
upperback 1.81028 -1.25034 2.60667
thorax 0.35525 -0.689315 5.64761
lowerneck -12.4275 2.04992 -12.755
upperneck 25.7372 5.08517 2.44728
head 9.88507 1.33542 3.59231
rclavicle 1.07344e-014 -1.39149e-014
rhumerus -34.4619 7.08098 -79.1466
rradius 68.404
rwrist 9.39195
rhand -26.4207 11.1431
rfingers 7.12502
rthumb 0.139394 -18.8366
lclavicle 1.07344e-014 -1.39149e-014
lhumerus -11.1396 -28.8455 84.7415
lradius 113.227
lwrist 13.4117
lhand -27.4649 42.6363
lfingers 7.12502
lthumb -0.869061 72.6143
rfemur -13.5771 2.84209 10.9425
rtibia 22.64
rfoot -13.9195 -11.7973
rtoes 5.6633
lfemur -7.11297 1.29953 -22.9192
ltibia 16.3714
lfoot -9.26324 4.99849
ltoes -11.8687
478
root 0.957452 18.0195 -1.17145 3.82814 -29.372 1.22633
lowerback 2.56871 -0.598891 -4.54565
upperback 2.10116 -0.896535 2.09551
thorax 0.827893 -0.522286 4.7328
lowerneck -12.6368 1.87553 -12.5137
upperneck 26.0183 4.73244 2.8212
head 10.0428 1.225 3.66289
rclavicle -2.09718e-014 1.78906e-014
rhumerus -34.159 6.20368 -79.6224
rradius 69.5011
rwrist 9.38523
rhand -26.2856 11.0931
rfingers 7.12502
rthumb 0.269879 -18.8865
lclavicle -2.09718e-014 1.78906e-014
lhumerus -10.7787 -29.8253 84.2199
lradius 112.621
lwrist 13.6293
lhand -27.1438 42.6038
lfingers 7.12502
lthumb -0.558964 72.5828
rfemur -13.5201 2.90544 10.8321
rtibia 22.6631
rfoot -13.8909 -11.8214
rtoes 5.27589
lfemur -7.02226 1.39374 -23.0234
ltibia 16.3333
lfoot -9.26755 4.90961
ltoes -11.7183
479
root 0.958759 18.0182 -1.16909 3.7318 -29.4053 1.32683
lowerback 2.44328 -0.478472 -4.32874
upperback 2.16399 -0.725369 1.87728
thorax 0.936127 -0.436135 4.37812
lowerneck -12.6694 1.86832 -12.2641
upperneck 26.3011 4.67446 2.83065
head 10.16 1.20835 3.62913
rclavicle 8.90555e-014 -3.57812e-015
rhumerus -34.0456 6.0278 -79.9171
rradius 70.662
rwrist 9.28585
rhand -26.1887 10.9177
rfingers 7.12502
rthumb 0.363472 -19.0618
lclavicle 8.90555e-014 -3.57812e-015
lhumerus -10.9356 -30.2492 84.2156
lradius 111.947
lwrist 13.8106
lhand -26.9997 42.3613
lfingers 7.12502
lthumb -0.419806 72.3406
rfemur -13.4861 2.90364 10.7251
rtibia 22.6882
rfoot -13.8885 -11.7794
rtoes 4.98853
lfemur -6.94179 1.44102 -23.1289
ltibia 16.2988
lfoot -9.26756 4.89427
ltoes -11.763
480
root 0.959388 18.0181 -1.16752 3.70744 -29.4309 1.32774
lowerback 2.48221 -0.438932 -4.25609
upperback 2.07629 -0.673137 1.86171
thorax 0.816859 -0.403906 4.32091
lowerneck -12.6786 1.92845 -12.1808
upperneck 26.7206 4.77463 2.74193
head 10.3127 1.22827 3.6084
rclavicle 3.96575e-014 -5.56597e-015
rhumerus -34.0597 6.22452 -80.0799
rradius 71.8578
rwrist 9.35932
rhand -25.9707 10.7221
rfingers 7.12502
rthumb 0.574016 -19.2569
lclavicle 3.96575e-014 -5.56597e-015
lhumerus -11.5683 -30.2913 84.6186
lradius 111.303
lwrist 13.9998
lhand -27.261 42.0123
lfingers 7.12502
lthumb -0.672202 71.991
rfemur -13.48 2.85817 10.72
rtibia 22.7188
rfoot -13.8587 -11.6863
rtoes 4.78834
lfemur -6.89057 1.41611 -23.1323
ltibia 16.2726
lfoot -9.26508 4.9491
ltoes -11.5821
